<svg width="32" height="32" viewBox="0 0 32 32" fill="none" xmlns="http://www.w3.org/2000/svg">
<g clip-path="url(#clip0)">
<path d="M27.9711 29.9355H25.9355V4.64516C25.9355 4.07503 25.4734 3.6129 24.9032 3.6129H17.1613V1.03226C17.1613 0.462129 16.6992 0 16.1291 0H8.96776C8.39764 0 7.93551 0.462129 7.93551 1.03226V3.6129H7.0968C6.52667 3.6129 6.06454 4.07503 6.06454 4.64516V29.9355H4.02899C3.47299 29.9355 2.9948 30.363 2.96893 30.9183C2.94131 31.5112 3.41331 32 4.00002 32H11.3549C11.6399 32 11.871 31.7689 11.871 31.4839V25.5484H11.4485C10.8927 25.5484 10.4145 25.1212 10.3883 24.5661C10.3603 23.9733 10.8327 23.4839 11.4194 23.4839C11.7311 23.4839 20.8094 23.4839 20.5515 23.4839C21.1073 23.4839 21.5856 23.911 21.6118 24.4662C21.6397 25.059 21.1674 25.5484 20.5807 25.5484H20.1291V31.4839C20.1291 31.7689 20.3602 32 20.6452 32H28C28.5867 32 29.0587 31.5112 29.0311 30.9183C29.0052 30.363 28.5271 29.9355 27.9711 29.9355ZM13.4839 21.3548H12.3226C11.7525 21.3548 11.2903 20.8926 11.2903 20.3226C11.2903 19.7525 11.7525 19.2903 12.3226 19.2903H13.4839C14.054 19.2903 14.5162 19.7525 14.5162 20.3226C14.5162 20.8926 14.054 21.3548 13.4839 21.3548ZM13.4839 17.4839H12.3226C11.7525 17.4839 11.2903 17.0217 11.2903 16.4516C11.2903 15.8815 11.7525 15.4194 12.3226 15.4194H13.4839C14.054 15.4194 14.5162 15.8815 14.5162 16.4516C14.5162 17.0217 14.054 17.4839 13.4839 17.4839ZM13.4839 13.6129H12.3226C11.7525 13.6129 11.2903 13.1507 11.2903 12.5806C11.2903 12.0106 11.7525 11.5484 12.3226 11.5484H13.4839C14.054 11.5484 14.5162 12.0106 14.5162 12.5806C14.5162 13.1507 14.054 13.6129 13.4839 13.6129ZM13.4839 9.74193H12.3226C11.7525 9.74193 11.2903 9.27974 11.2903 8.70968C11.2903 8.13961 11.7525 7.67742 12.3226 7.67742H13.4839C14.054 7.67742 14.5162 8.13961 14.5162 8.70968C14.5162 9.27974 14.054 9.74193 13.4839 9.74193ZM19.6129 21.3548H18.4516C17.8815 21.3548 17.4194 20.8926 17.4194 20.3226C17.4194 19.7525 17.8815 19.2903 18.4516 19.2903H19.6129C20.1831 19.2903 20.6452 19.7525 20.6452 20.3226C20.6452 20.8926 20.1831 21.3548 19.6129 21.3548ZM19.6129 17.4839H18.4516C17.8815 17.4839 17.4194 17.0217 17.4194 16.4516C17.4194 15.8815 17.8815 15.4194 18.4516 15.4194H19.6129C20.1831 15.4194 20.6452 15.8815 20.6452 16.4516C20.6452 17.0217 20.1831 17.4839 19.6129 17.4839ZM19.6129 13.6129H18.4516C17.8815 13.6129 17.4194 13.1507 17.4194 12.5806C17.4194 12.0106 17.8815 11.5484 18.4516 11.5484H19.6129C20.1831 11.5484 20.6452 12.0106 20.6452 12.5806C20.6452 13.1507 20.1831 13.6129 19.6129 13.6129ZM19.6129 9.74193H18.4516C17.8815 9.74193 17.4194 9.27974 17.4194 8.70968C17.4194 8.13961 17.8815 7.67742 18.4516 7.67742H19.6129C20.1831 7.67742 20.6452 8.13961 20.6452 8.70968C20.6452 9.27974 20.1831 9.74193 19.6129 9.74193ZM13.9355 31.4839V26.0645C13.9355 25.7795 14.1666 25.5484 14.4516 25.5484H17.5484C17.8334 25.5484 18.0645 25.7795 18.0645 26.0645V31.4839C18.0645 31.7689 17.8334 32 17.5484 32H14.4516C14.1666 32 13.9355 31.7689 13.9355 31.4839Z" fill="white"/>
</g>
<defs>
<clipPath id="clip0">
<rect width="32" height="32" fill="white"/>
</clipPath>
</defs>
</svg>
