<svg width="32" height="32" viewBox="0 0 32 32" fill="none" xmlns="http://www.w3.org/2000/svg">
<path d="M3.82596 17.8875H0.463546C0.207914 17.8875 0 18.0988 0 18.3544V28.0974C0 28.353 0.207914 28.5609 0.463546 28.5609H3.82596C4.08159 28.5609 4.2895 28.353 4.2895 28.0974V18.3544C4.29121 18.0988 4.08329 17.8875 3.82596 17.8875Z" fill="white"/>
<path d="M31.5347 17.8875H28.1723C27.9167 17.8875 27.7104 18.0988 27.7104 18.3544V28.0974C27.7104 28.353 27.9167 28.5609 28.1723 28.5609H31.5347C31.7937 28.5609 32 28.353 32 28.0974V18.3544C32 18.0988 31.7937 17.8875 31.5347 17.8875Z" fill="white"/>
<path d="M10.0668 12.318H6.70439C6.44875 12.318 6.23914 12.5259 6.23914 12.7832V28.0939C6.23914 28.3495 6.44875 28.5574 6.70439 28.5574H10.0668C10.3241 28.5574 10.532 28.3495 10.532 28.0939V12.7832C10.532 12.5242 10.3241 12.318 10.0668 12.318Z" fill="white"/>
<path d="M24.3208 12.318H20.9584C20.7028 12.318 20.4966 12.5259 20.4966 12.7832V28.0939C20.4966 28.3495 20.7028 28.5574 20.9584 28.5574H24.3208C24.5799 28.5574 24.7861 28.3495 24.7861 28.0939V12.7832C24.7878 12.5242 24.5816 12.318 24.3208 12.318Z" fill="white"/>
<path d="M17.0592 15.7094H13.6951C13.4395 15.7094 13.2316 15.919 13.2316 16.1729V28.0922C13.2316 28.3478 13.4395 28.5557 13.6951 28.5557H17.0592C17.3183 28.5557 17.5245 28.3478 17.5245 28.0922V16.1729C17.5245 15.919 17.3183 15.7094 17.0592 15.7094Z" fill="white"/>
<path d="M2.14562 11.8391C3.13577 11.8391 3.93675 11.0382 3.93675 10.048C3.93675 9.8759 3.90437 9.714 3.85835 9.55721L7.62637 6.84581C7.85814 6.95488 8.11377 7.01964 8.38645 7.01964C8.91305 7.01964 9.38 6.78957 9.70891 6.42828L13.2656 8.48696C13.2452 8.59263 13.2315 8.7017 13.2315 8.81076C13.2315 9.79921 14.0342 10.6019 15.0226 10.6019C15.9753 10.6019 16.7473 9.85545 16.8018 8.91643L21.5975 7.51386C21.923 7.96036 22.4462 8.25519 23.0427 8.25519C23.4381 8.25519 23.7976 8.12397 24.0942 7.90583L28.1246 10.6394C28.0906 10.7808 28.0616 10.9291 28.0616 11.0825C28.0616 12.0726 28.8643 12.8753 29.8527 12.8753C30.8412 12.8753 31.6472 12.0726 31.6472 11.0825C31.6472 10.0923 30.8412 9.29135 29.8527 9.29135C29.4573 9.29135 29.0977 9.42258 28.8012 9.63901L24.7742 6.91057C24.8082 6.76741 24.8338 6.62085 24.8338 6.46747C24.8338 5.47733 24.0345 4.67635 23.0427 4.67635C22.09 4.67635 21.318 5.42279 21.2618 6.36181L16.4678 7.76267C16.1423 7.31447 15.6174 7.02134 15.0226 7.02134C14.5813 7.02134 14.1842 7.18495 13.8723 7.4491L10.1708 5.3035C10.1708 5.27793 10.1776 5.25578 10.1776 5.23192C10.1776 4.24177 9.37659 3.43909 8.38645 3.43909C7.3963 3.43909 6.59532 4.24007 6.59532 5.23021C6.59532 5.49948 6.66008 5.7517 6.76574 5.98177L3.16133 8.57558C2.87332 8.37449 2.52395 8.2569 2.14562 8.2569C1.15547 8.2569 0.354492 9.05958 0.354492 10.048C0.354492 11.0382 1.15547 11.8391 2.14562 11.8391Z" fill="white"/>
</svg>
