<svg width="32" height="32" viewBox="0 0 32 32" fill="none" xmlns="http://www.w3.org/2000/svg">
<path d="M27.3806 17.0825H24.9059C25.1581 17.7731 25.2959 18.5185 25.2959 19.2953V28.6484C25.2959 28.9723 25.2396 29.2832 25.137 29.5723H29.2283C30.7566 29.5723 31.9999 28.3289 31.9999 26.8007V21.7018C32 19.1548 29.9278 17.0825 27.3806 17.0825Z" fill="white"/>
<path d="M6.70408 19.2953C6.70408 18.5184 6.84189 17.7731 7.09414 17.0825H4.61938C2.07225 17.0825 0 19.1548 0 21.7019V26.8007C0 28.329 1.24331 29.5724 2.77163 29.5724H6.86301C6.76045 29.2831 6.70408 28.9723 6.70408 28.6484V19.2953Z" fill="white"/>
<path d="M18.8289 14.676H13.1713C10.6241 14.676 8.55188 16.7483 8.55188 19.2954V28.6486C8.55188 29.1587 8.96551 29.5724 9.47576 29.5724H22.5244C23.0346 29.5724 23.4483 29.1588 23.4483 28.6486V19.2954C23.4483 16.7483 21.376 14.676 18.8289 14.676Z" fill="white"/>
<path d="M16 2.42749C12.9367 2.42749 10.4446 4.91962 10.4446 7.98294C10.4446 10.0608 11.5914 11.8754 13.285 12.8282C14.0883 13.2801 15.0145 13.5383 16 13.5383C16.9855 13.5383 17.9116 13.2801 18.7149 12.8282C20.4086 11.8754 21.5553 10.0607 21.5553 7.98294C21.5553 4.91968 19.0632 2.42749 16 2.42749Z" fill="white"/>
<path d="M6.24491 7.60559C3.95396 7.60559 2.09021 9.46934 2.09021 11.7603C2.09021 14.0512 3.95396 15.915 6.24491 15.915C6.82603 15.915 7.37941 15.7946 7.8821 15.5782C8.75122 15.204 9.46785 14.5417 9.91129 13.712C10.2225 13.1297 10.3996 12.4654 10.3996 11.7603C10.3996 9.46941 8.53585 7.60559 6.24491 7.60559Z" fill="white"/>
<path d="M25.7552 7.60559C23.4642 7.60559 21.6005 9.46934 21.6005 11.7603C21.6005 12.4654 21.7775 13.1297 22.0888 13.712C22.5322 14.5417 23.2488 15.2041 24.118 15.5782C24.6207 15.7946 25.174 15.915 25.7552 15.915C28.0461 15.915 29.9099 14.0512 29.9099 11.7603C29.9099 9.46934 28.0461 7.60559 25.7552 7.60559Z" fill="white"/>
</svg>
