<svg width="32" height="32" viewBox="0 0 32 32" fill="none" xmlns="http://www.w3.org/2000/svg">
<g clip-path="url(#clip0)">
<path d="M19.9998 17.3336C19.2625 17.3336 18.6666 17.931 18.6666 18.6668V24.0003C18.6666 24.7349 18.0691 25.3335 17.3331 25.3335H13.3331V5.33369C13.3331 4.19503 12.6078 3.1777 11.5172 2.79904L11.1224 2.66697H17.3331C18.0691 2.66697 18.6666 3.26559 18.6666 4.00045V8.00041C18.6666 8.73624 19.2625 9.33365 19.9998 9.33365C20.7371 9.33365 21.333 8.73624 21.333 8.00041V4.00045C21.333 1.79515 19.5384 0.000488281 17.3331 0.000488281H2.99997C2.94919 0.000488281 2.90671 0.0231932 2.85739 0.0297849C2.79318 0.0244138 2.7319 0.000488281 2.66672 0.000488281C1.19603 0.000488281 0 1.19628 0 2.66697V26.6667C0 27.8054 0.725334 28.8227 1.8159 29.2014L9.83998 31.8762C10.112 31.9601 10.3825 32.0002 10.6666 32.0002C12.1373 32.0002 13.3331 30.8041 13.3331 29.3335V28.0002H17.3331C19.5384 28.0002 21.333 26.2056 21.333 24.0003V18.6668C21.333 17.931 20.7371 17.3336 19.9998 17.3336Z" fill="white"/>
<path d="M31.6091 12.3908L26.2757 7.05765C25.8946 6.67631 25.3211 6.56156 24.8226 6.7681C24.3252 6.97489 23.9998 7.46146 23.9998 8.00027V12.0002H18.6666C17.9305 12.0002 17.3331 12.5974 17.3331 13.3335C17.3331 14.0695 17.9305 14.6667 18.6666 14.6667H23.9998V18.6667C23.9998 19.2055 24.3252 19.692 24.8226 19.8988C25.3211 20.1054 25.8946 19.9906 26.2757 19.6095L31.6091 14.2761C32.1303 13.7548 32.1303 12.9121 31.6091 12.3908Z" fill="white"/>
</g>
<defs>
<clipPath id="clip0">
<rect width="32" height="32" fill="white"/>
</clipPath>
</defs>
</svg>
