<svg width="32" height="32" viewBox="0 0 32 32" fill="none" xmlns="http://www.w3.org/2000/svg">
<path d="M31.0411 19.5067L28.0998 17.2067C28.1371 16.852 28.1691 16.4374 28.1691 15.9987C28.1691 15.56 28.1384 15.1454 28.0998 14.7907L31.0438 12.4894C31.5905 12.0574 31.7398 11.2907 31.3918 10.6521L28.3331 5.36C28.0064 4.76269 27.2904 4.456 26.5638 4.724L23.0931 6.11731C22.4278 5.63731 21.7304 5.232 21.0091 4.908L20.4811 1.22669C20.3944 0.528 19.7864 0 19.0678 0H12.9345C12.2158 0 11.6092 0.528 11.5238 1.216L10.9945 4.91069C10.2958 5.22538 9.60917 5.62537 8.91448 6.12L5.43448 4.72269C4.78242 4.47069 4.00242 4.75331 3.67842 5.348L0.615795 10.6467C0.254482 11.2574 0.403795 12.0507 0.962482 12.4934L3.9038 14.7934C3.85711 15.2427 3.83448 15.6334 3.83448 16.0001C3.83448 16.3668 3.85717 16.7574 3.9038 17.2081L0.959795 19.5094C0.413107 19.9427 0.265107 20.7094 0.613107 21.3467L3.67179 26.6387C3.99848 27.2347 4.70779 27.544 5.44111 27.2747L8.91179 25.8814C9.57579 26.3601 10.2731 26.7654 10.9945 27.0907L11.5225 30.7707C11.6091 31.472 12.2158 32 12.9358 32H19.0691C19.7878 32 20.3958 31.472 20.4811 30.784L21.0104 27.0907C21.7091 26.7747 22.3944 26.376 23.0904 25.88L26.5704 27.2773C26.7384 27.3426 26.9131 27.376 27.0931 27.376C27.6104 27.376 28.0864 27.0933 28.3264 26.6533L31.3984 21.3333C31.7398 20.7093 31.5904 19.9427 31.0411 19.5067ZM16.0011 21.3333C13.0598 21.3333 10.6678 18.9413 10.6678 16C10.6678 13.0587 13.0598 10.6667 16.0011 10.6667C18.9424 10.6667 21.3344 13.0587 21.3344 16C21.3344 18.9413 18.9424 21.3333 16.0011 21.3333Z" fill="white"/>
</svg>
